<svg xmlns="http://www.w3.org/2000/svg" viewBox="0 0 840 250">
  <defs>
    <linearGradient id="cielo" x1="0" y1="0" x2="0" y2="1">
      <stop offset="0" stop-color="#0f141c"/><stop offset="1" stop-color="#1c2634"/>
    </linearGradient>
    <radialGradient id="halo" cx="0.5" cy="0.5" r="0.5">
      <stop offset="0" stop-color="#ffe27a" stop-opacity="0.85"/>
      <stop offset="0.6" stop-color="#ffd54a" stop-opacity="0.3"/>
      <stop offset="1" stop-color="#ffd54a" stop-opacity="0"/>
    </radialGradient>
    <linearGradient id="ray2" x1="0" y1="0" x2="0" y2="1">
      <stop offset="0" stop-color="#ffe27a"/><stop offset="1" stop-color="#e8930f"/>
    </linearGradient>
  </defs>
  <rect width="840" height="250" fill="url(#cielo)"/>
  <g fill="#dfe6ee" opacity="0.7">
    <circle cx="90" cy="34" r="1.6"/><circle cx="210" cy="20" r="1.2"/><circle cx="330" cy="42" r="1.4"/>
    <circle cx="510" cy="24" r="1.2"/><circle cx="640" cy="38" r="1.6"/><circle cx="780" cy="26" r="1.2"/>
  </g>
  <!-- edificio grande -->
  <g>
    <rect x="60" y="70" width="190" height="180" fill="#242e3d"/>
    <rect x="60" y="70" width="190" height="10" fill="#2e3a4c"/>
    <g>
      <rect x="80" y="96" width="30" height="24" rx="3" fill="#ffd85e"/>
      <rect x="130" y="96" width="30" height="24" rx="3" fill="#334053"/>
      <rect x="180" y="96" width="30" height="24" rx="3" fill="#ffd85e"/>
      <rect x="80" y="140" width="30" height="24" rx="3" fill="#334053"/>
      <rect x="130" y="140" width="30" height="24" rx="3" fill="#ffd85e"/>
      <rect x="180" y="140" width="30" height="24" rx="3" fill="#334053"/>
      <rect x="80" y="184" width="30" height="24" rx="3" fill="#ffd85e"/>
      <rect x="130" y="184" width="30" height="24" rx="3" fill="#ffd85e"/>
      <rect x="180" y="184" width="30" height="24" rx="3" fill="#334053"/>
    </g>
    <rect x="138" y="222" width="34" height="28" fill="#1a222d"/>
  </g>
  <!-- edificio bajo -->
  <g>
    <rect x="280" y="130" width="130" height="120" fill="#1f2937"/>
    <rect x="296" y="150" width="26" height="20" rx="3" fill="#ffd85e"/>
    <rect x="336" y="150" width="26" height="20" rx="3" fill="#334053"/>
    <rect x="376" y="150" width="26" height="20" rx="3" fill="#ffd85e"/>
    <rect x="296" y="192" width="26" height="20" rx="3" fill="#334053"/>
    <rect x="336" y="192" width="26" height="20" rx="3" fill="#ffd85e"/>
    <rect x="376" y="192" width="26" height="20" rx="3" fill="#334053"/>
  </g>
  <!-- CGP en fachada + acometida -->
  <rect x="262" y="196" width="26" height="34" rx="4" fill="#4a5261" stroke="#333a46" stroke-width="2"/>
  <rect x="268" y="204" width="6" height="14" rx="2" fill="#c9cfd8"/>
  <rect x="278" y="204" width="6" height="14" rx="2" fill="#c9cfd8"/>
  <path d="M0 150 C 90 190, 180 205, 262 210" fill="none" stroke="#7a4a21" stroke-width="4" stroke-linecap="round"/>
  <path d="M0 158 C 90 198, 180 212, 262 218" fill="none" stroke="#2e6fd0" stroke-width="4" stroke-linecap="round"/>
  <!-- bombilla protagonista -->
  <g>
    <circle cx="600" cy="140" r="96" fill="url(#halo)"/>
    <rect x="583" y="52" width="34" height="12" rx="4" fill="#8f97a4"/>
    <rect x="589" y="64" width="22" height="14" rx="3" fill="#aab2bd"/>
    <circle cx="600" cy="130" r="52" fill="#ffd85e" stroke="#d9a92e" stroke-width="4"/>
    <path d="M580 122 q20 26 40 0" fill="none" stroke="#b97f13" stroke-width="5" stroke-linecap="round"/>
  </g>
  <!-- rayo -->
  <path d="M748 58 L708 132 h22 L694 208 758 124 h-24 L774 58 Z"
        fill="url(#ray2)" stroke="#b97f13" stroke-width="5" stroke-linejoin="round"/>
  <!-- suelo -->
  <rect x="0" y="246" width="840" height="4" fill="#2c3542"/>
</svg>
